<?xml version="1.0" standalone="no"?>
<!DOCTYPE svg PUBLIC "-//W3C//DTD SVG 20010904//EN"
 "http://www.w3.org/TR/2001/REC-SVG-20010904/DTD/svg10.dtd">
<svg version="1.0" xmlns="http://www.w3.org/2000/svg"
 width="251.000000pt" height="55.000000pt" viewBox="0 0 251.000000 55.000000"
 preserveAspectRatio="xMidYMid meet">

<g transform="translate(0.000000,55.000000) scale(0.100000,-0.100000)"
fill="#000000" stroke="none">
<path d="M80 280 l0 -240 80 0 80 0 0 240 0 240 -80 0 -80 0 0 -240z"/>
<path d="M330 277 l0 -233 35 4 35 4 0 229 0 229 -35 0 -35 0 0 -233z"/>
<path d="M450 170 c0 -123 1 -130 20 -130 17 0 20 7 20 50 0 47 2 50 25 50 20
0 30 -10 50 -50 20 -40 30 -50 51 -50 14 0 24 3 22 8 -2 4 -14 28 -27 54 -23
43 -23 47 -8 63 17 17 23 80 9 102 -12 19 -60 33 -113 33 l-49 0 0 -130z m111
80 c42 -23 8 -75 -44 -68 -22 3 -34 35 -23 64 6 16 39 18 67 4z"/>
<path d="M660 170 l0 -130 61 0 c53 0 64 3 89 28 35 36 47 100 28 157 -16 49
-61 75 -130 75 l-48 0 0 -130z m103 79 c32 -17 37 -28 37 -81 0 -58 -26 -91
-68 -86 -26 3 -27 5 -30 77 -2 41 -1 80 2 88 7 16 30 17 59 2z"/>
<path d="M880 170 l0 -130 63 0 c70 0 101 15 111 55 4 15 1 38 -6 53 -10 19
-11 35 -4 54 13 36 -5 75 -40 88 -14 6 -48 10 -75 10 l-49 0 0 -130z m104 84
c9 -3 16 -16 16 -29 0 -24 -17 -35 -56 -35 -20 0 -24 5 -24 28 0 16 3 32 7 35
8 9 36 9 57 1z m24 -133 c4 -29 -12 -41 -55 -41 -31 0 -33 2 -33 36 l0 35 43
-3 c36 -3 43 -7 45 -27z"/>
<path d="M1104 170 c0 -74 1 -105 3 -67 2 37 2 97 0 135 -2 37 -3 6 -3 -68z"/>
<path d="M1157 293 c-4 -3 -6 -27 -6 -52 1 -25 4 -36 6 -23 5 28 27 29 39 1 8
-16 10 -12 10 23 2 41 -8 58 -32 58 -6 0 -14 -3 -17 -7z m38 -23 c0 -8 -8 -16
-17 -18 -13 -2 -18 3 -18 18 0 15 5 20 18 18 9 -2 17 -10 17 -18z"/>
<path d="M1317 293 c-4 -3 -7 -17 -7 -30 0 -12 -4 -23 -10 -23 -5 0 -10 9 -10
19 0 30 -19 35 -26 6 -8 -33 -24 -32 -24 2 0 14 -3 24 -6 20 -8 -8 6 -87 16
-87 4 0 11 17 15 38 4 21 10 30 13 22 23 -68 24 -68 38 -15 13 49 13 61 1 48z"/>
<path d="M1347 256 c-19 -56 -21 -69 -6 -43 5 9 16 17 24 17 8 0 19 -8 25 -17
9 -15 10 -14 4 7 -3 14 -12 38 -18 55 l-12 30 -17 -49z m27 -1 c3 -9 0 -15 -9
-15 -9 0 -12 6 -9 15 4 8 7 15 9 15 2 0 5 -7 9 -15z"/>
<path d="M1470 263 l0 -38 -22 35 c-13 21 -23 30 -26 22 -2 -7 2 -19 10 -25 9
-7 22 -23 32 -37 16 -24 16 -24 16 28 0 28 -2 52 -5 52 -3 0 -5 -17 -5 -37z"/>
<path d="M1507 293 c-4 -3 -7 -26 -7 -50 0 -39 2 -43 25 -43 24 0 45 25 45 54
0 29 -45 58 -63 39z m43 -23 c13 -24 -3 -60 -25 -60 -10 0 -15 11 -15 33 0 50
20 64 40 27z"/>
<path d="M1601 277 c-6 -15 -12 -38 -14 -50 -2 -12 -2 -16 0 -9 6 18 40 15 47
-4 4 -9 9 -15 11 -12 2 2 -4 26 -14 54 l-19 49 -11 -28z m15 -34 c-10 -10 -19
5 -10 18 6 11 8 11 12 0 2 -7 1 -15 -2 -18z"/>
<path d="M1422 225 c0 -16 2 -22 5 -12 2 9 2 23 0 30 -3 6 -5 -1 -5 -18z"/>
<path d="M1150 95 c0 -45 1 -46 28 -43 24 3 27 7 27 43 0 36 -3 40 -27 43 -27
3 -28 2 -28 -43z m48 -3 c3 -27 0 -32 -17 -32 -17 0 -21 6 -21 36 0 28 3 35
18 32 11 -2 18 -14 20 -36z"/>
<path d="M1230 95 c0 -43 1 -45 28 -44 23 2 24 2 5 6 -13 2 -23 11 -23 18 0 7
10 16 23 18 l22 4 -22 2 c-33 2 -29 29 5 34 25 4 25 4 -5 6 -33 1 -33 0 -33
-44z"/>
<path d="M1305 119 c4 -13 13 -35 20 -48 12 -23 12 -23 28 18 22 55 20 67 -2
16 l-18 -40 -7 32 c-4 18 -12 36 -18 39 -7 4 -8 -2 -3 -17z"/>
<path d="M1390 95 c0 -43 1 -45 28 -44 23 2 24 2 5 6 -13 2 -23 11 -23 18 0 7
10 16 23 18 l22 4 -22 2 c-13 0 -23 7 -23 15 0 8 10 17 23 19 19 4 18 4 -5 6
-27 1 -28 -1 -28 -44z"/>
<path d="M1462 98 c-2 -46 -1 -48 26 -47 22 1 23 2 5 6 -18 3 -23 13 -26 46
l-4 42 -1 -47z"/>
<path d="M1530 120 c-13 -24 -4 -66 16 -74 36 -14 60 26 44 70 -12 29 -45 32
-60 4z m52 -8 c7 -25 -10 -64 -24 -60 -7 3 -14 21 -16 41 -3 31 0 37 16 37 11
0 22 -8 24 -18z"/>
<path d="M1611 93 c1 -26 3 -40 6 -31 2 9 14 18 26 20 16 2 22 10 22 28 0 20
-6 26 -27 28 -27 3 -28 2 -27 -45z m47 20 c-2 -10 -10 -18 -18 -18 -8 0 -16 8
-18 18 -2 12 3 17 18 17 15 0 20 -5 18 -17z"/>
<path d="M1692 95 c1 -39 2 -42 5 -16 3 26 7 31 14 20 5 -8 9 -9 9 -3 0 5 -7
19 -15 30 -13 17 -14 15 -13 -31z"/>
<path d="M1750 110 c-7 -16 -16 -30 -21 -30 -5 0 -9 -4 -9 -10 0 -5 3 -10 8
-10 10 0 47 69 40 75 -3 3 -11 -8 -18 -25z"/>
<path d="M1797 133 c-2 -5 -5 -25 -5 -45 -1 -37 0 -38 31 -37 30 2 30 2 5 6
-34 5 -37 30 -5 36 l22 4 -22 2 c-33 2 -29 29 5 34 l27 4 -27 2 c-15 0 -29 -2
-31 -6z"/>
<path d="M1871 95 c2 -47 2 -48 9 -15 4 19 8 31 9 25 1 -5 10 -21 21 -35 l20
-25 -2 50 c-1 45 -1 47 -7 15 l-6 -35 -22 35 -23 35 1 -50z"/>
<path d="M1957 132 c6 -4 13 -25 16 -47 l4 -40 1 42 c2 30 7 43 20 46 9 3 1 5
-18 6 -19 0 -30 -3 -23 -7z"/>
<path d="M2040 94 c0 -44 1 -45 28 -42 24 3 27 7 25 38 0 19 -1 38 -2 43 -1 4
-12 7 -26 7 -23 0 -25 -4 -25 -46z m40 21 c0 -8 -7 -15 -15 -15 -8 0 -15 7
-15 15 0 8 7 15 15 15 8 0 15 -7 15 -15z m8 -42 c2 -8 -5 -13 -17 -13 -12 0
-21 6 -21 16 0 18 31 15 38 -3z"/>
<path d="M2122 128 c-24 -24 -4 -88 27 -88 36 0 41 93 6 98 -11 1 -26 -3 -33
-10z m43 -37 c0 -40 -19 -51 -35 -21 -14 27 -3 62 18 58 12 -2 17 -14 17 -37z"/>
<path d="M2209 95 c-9 -25 -13 -45 -8 -45 5 0 9 5 9 10 0 6 9 10 20 10 11 0
20 -5 20 -12 0 -6 3 -9 6 -6 6 7 -16 88 -25 88 -3 0 -13 -20 -22 -45z m31 0
c0 -8 -4 -15 -10 -15 -5 0 -10 7 -10 15 0 8 5 15 10 15 6 0 10 -7 10 -15z"/>
<path d="M2281 93 c0 -42 1 -45 10 -23 l10 25 18 -24 18 -23 -1 43 c-1 40 -3
44 -28 47 -27 3 -28 2 -27 -45z m49 22 c0 -8 -9 -15 -20 -15 -11 0 -20 7 -20
15 0 8 9 15 20 15 11 0 20 -7 20 -15z"/>
<path d="M2360 95 c0 -40 2 -45 23 -45 29 0 47 18 47 45 0 27 -18 45 -47 45
-21 0 -23 -5 -23 -45z m50 20 c16 -19 3 -55 -21 -55 -15 0 -19 7 -19 35 0 37
18 47 40 20z"/>
<path d="M1760 70 c0 -11 4 -20 9 -20 5 0 7 9 4 20 -3 11 -7 20 -9 20 -2 0 -4
-9 -4 -20z"/>
</g>
</svg>
